<mxfile host="app.diagrams.net" modified="2020-10-22T05:58:51.867Z" agent="5.0 (Windows NT 10.0; Win64; x64) AppleWebKit/537.36 (KHTML, like Gecko) Chrome/86.0.4240.75 Safari/537.36" etag="BtLfpPkCJwAxLv4TbaRk" version="13.8.1" type="github">
  <diagram id="tw4UoYzaHc-DfHEbpQR7" name="Page-1">
    <mxGraphModel dx="1422" dy="777" grid="1" gridSize="10" guides="1" tooltips="1" connect="1" arrows="1" fold="1" page="1" pageScale="1" pageWidth="827" pageHeight="1169" math="0" shadow="0">
      <root>
        <mxCell id="0" />
        <mxCell id="1" parent="0" />
        <mxCell id="27gqgZurmdsXIgYxWqX_-1" value="" style="rounded=1;whiteSpace=wrap;html=1;dashed=1;strokeColor=none;strokeWidth=2;fillColor=#E6E6E6;fontFamily=Verdana;fontSize=12;fontColor=#00BEF2" vertex="1" parent="1">
          <mxGeometry x="111" y="54" width="165" height="670" as="geometry" />
        </mxCell>
        <mxCell id="27gqgZurmdsXIgYxWqX_-2" value="" style="rounded=1;whiteSpace=wrap;html=1;dashed=1;strokeColor=none;strokeWidth=2;fillColor=#E6E6E6;fontFamily=Verdana;fontSize=12;fontColor=#00BEF2" vertex="1" parent="1">
          <mxGeometry x="291" y="54" width="165" height="670" as="geometry" />
        </mxCell>
        <mxCell id="27gqgZurmdsXIgYxWqX_-3" value="" style="rounded=1;whiteSpace=wrap;html=1;dashed=1;strokeColor=none;strokeWidth=2;fillColor=#E6E6E6;fontFamily=Verdana;fontSize=12;fontColor=#00BEF2" vertex="1" parent="1">
          <mxGeometry x="471" y="54" width="165" height="670" as="geometry" />
        </mxCell>
        <mxCell id="27gqgZurmdsXIgYxWqX_-4" value="" style="rounded=1;whiteSpace=wrap;html=1;dashed=1;strokeColor=none;strokeWidth=2;fillColor=#E6E6E6;fontFamily=Verdana;fontSize=12;fontColor=#00BEF2" vertex="1" parent="1">
          <mxGeometry x="651" y="54" width="165" height="670" as="geometry" />
        </mxCell>
        <mxCell id="27gqgZurmdsXIgYxWqX_-5" value="DB" style="whiteSpace=wrap;html=1;dashed=1;strokeColor=none;strokeWidth=2;fillColor=#3399FF;fontFamily=Helvetica;fontSize=18;fontColor=#FFFFFF;fontStyle=1" vertex="1" parent="1">
          <mxGeometry x="111" y="54" width="165" height="60" as="geometry" />
        </mxCell>
        <mxCell id="27gqgZurmdsXIgYxWqX_-6" value="Server" style="whiteSpace=wrap;html=1;dashed=1;strokeColor=none;strokeWidth=2;fillColor=#3399FF;fontFamily=Helvetica;fontSize=18;fontColor=#FFFFFF;fontStyle=1" vertex="1" parent="1">
          <mxGeometry x="291" y="54" width="165" height="60" as="geometry" />
        </mxCell>
        <mxCell id="27gqgZurmdsXIgYxWqX_-7" value="NetWork" style="whiteSpace=wrap;html=1;dashed=1;strokeColor=none;strokeWidth=2;fillColor=#3399FF;fontFamily=Helvetica;fontSize=18;fontColor=#FFFFFF;fontStyle=1" vertex="1" parent="1">
          <mxGeometry x="471" y="54" width="165" height="60" as="geometry" />
        </mxCell>
        <mxCell id="27gqgZurmdsXIgYxWqX_-8" value="AliCloud" style="whiteSpace=wrap;html=1;dashed=1;strokeColor=none;strokeWidth=2;fillColor=#3399FF;fontFamily=Helvetica;fontSize=18;fontColor=#FFFFFF;fontStyle=1" vertex="1" parent="1">
          <mxGeometry x="651" y="54" width="165" height="60" as="geometry" />
        </mxCell>
        <mxCell id="27gqgZurmdsXIgYxWqX_-9" value="" style="shape=mxgraph.arrows.two_way_arrow_horizontal;html=1;verticalLabelPosition=bottom;verticalAlign=top;strokeWidth=2;strokeColor=none;dashed=1;fillColor=#FFFFFF;fontFamily=Verdana;fontSize=12;fontColor=#00BEF2" vertex="1" parent="1">
          <mxGeometry x="251" y="65" width="67" height="39" as="geometry" />
        </mxCell>
        <mxCell id="27gqgZurmdsXIgYxWqX_-10" value="" style="shape=mxgraph.arrows.two_way_arrow_horizontal;html=1;verticalLabelPosition=bottom;verticalAlign=top;strokeWidth=2;strokeColor=none;dashed=1;fillColor=#FFFFFF;fontFamily=Verdana;fontSize=12;fontColor=#00BEF2" vertex="1" parent="1">
          <mxGeometry x="431" y="65" width="67" height="39" as="geometry" />
        </mxCell>
        <mxCell id="27gqgZurmdsXIgYxWqX_-11" value="" style="shape=mxgraph.arrows.two_way_arrow_horizontal;html=1;verticalLabelPosition=bottom;verticalAlign=top;strokeWidth=2;strokeColor=none;dashed=1;fillColor=#FFFFFF;fontFamily=Verdana;fontSize=12;fontColor=#00BEF2" vertex="1" parent="1">
          <mxGeometry x="611" y="65" width="67" height="39" as="geometry" />
        </mxCell>
        <mxCell id="27gqgZurmdsXIgYxWqX_-12" value="网关应用" style="rounded=1;whiteSpace=wrap;html=1;dashed=1;strokeColor=none;strokeWidth=2;fillColor=#FFFFFF;fontFamily=Helvetica;fontSize=14;fontColor=#FFB366;opacity=75;verticalAlign=top;fontStyle=1" vertex="1" parent="1">
          <mxGeometry x="481" y="134" width="140" height="480" as="geometry" />
        </mxCell>
        <mxCell id="27gqgZurmdsXIgYxWqX_-13" value="用户中心服务" style="rounded=1;whiteSpace=wrap;html=1;dashed=1;strokeColor=none;strokeWidth=2;fillColor=#FFFFFF;fontFamily=Helvetica;fontSize=14;fontColor=#FFB366;opacity=75;verticalAlign=top;fontStyle=1" vertex="1" parent="1">
          <mxGeometry x="304.25" y="134" width="140" height="140" as="geometry" />
        </mxCell>
        <mxCell id="27gqgZurmdsXIgYxWqX_-14" value="消息队列" style="rounded=1;whiteSpace=wrap;html=1;dashed=1;strokeColor=none;strokeWidth=2;fillColor=#FFFFFF;fontFamily=Helvetica;fontSize=14;fontColor=#FFB366;opacity=75;verticalAlign=top;fontStyle=1" vertex="1" parent="1">
          <mxGeometry x="663.5" y="134" width="140" height="480" as="geometry" />
        </mxCell>
        <mxCell id="27gqgZurmdsXIgYxWqX_-15" value="Cloud" style="verticalLabelPosition=bottom;html=1;verticalAlign=top;strokeColor=none;fillColor=#3399FF;shape=mxgraph.azure.cloud;dashed=1;fontSize=14;fontColor=#004C99" vertex="1" parent="1">
          <mxGeometry x="708.5" y="185" width="50" height="32.5" as="geometry" />
        </mxCell>
        <mxCell id="27gqgZurmdsXIgYxWqX_-16" value="" style="arrow;html=1;endArrow=block;endFill=1;strokeColor=none;strokeWidth=4;fontFamily=Helvetica;fontSize=36;fontColor=#FFB366;fillColor=#FFB366;opacity=100" edge="1" parent="1">
          <mxGeometry width="100" height="100" relative="1" as="geometry">
            <mxPoint x="489" y="200.82999999999993" as="sourcePoint" />
            <mxPoint x="409" y="200.82999999999993" as="targetPoint" />
          </mxGeometry>
        </mxCell>
        <mxCell id="27gqgZurmdsXIgYxWqX_-17" value="用户中心" style="rounded=1;whiteSpace=wrap;html=1;dashed=1;strokeColor=none;strokeWidth=2;fillColor=#FFFFFF;fontFamily=Helvetica;fontSize=14;fontColor=#FFB366;opacity=75;verticalAlign=top;fontStyle=1;arcSize=18;" vertex="1" parent="1">
          <mxGeometry x="123.5" y="134" width="140" height="140" as="geometry" />
        </mxCell>
        <mxCell id="27gqgZurmdsXIgYxWqX_-18" value="SQL Database" style="verticalLabelPosition=bottom;html=1;verticalAlign=top;strokeColor=none;fillColor=#3399FF;shape=mxgraph.azure.sql_database;dashed=1;fontFamily=Helvetica;fontSize=14;fontColor=#004C99" vertex="1" parent="1">
          <mxGeometry x="174.5" y="185" width="37.5" height="50" as="geometry" />
        </mxCell>
        <mxCell id="27gqgZurmdsXIgYxWqX_-19" value="用户注册中心" style="rounded=1;whiteSpace=wrap;html=1;dashed=1;strokeColor=none;strokeWidth=2;fillColor=#FFFFFF;fontFamily=Helvetica;fontSize=14;fontColor=#FFB366;opacity=75;verticalAlign=top;fontStyle=1" vertex="1" parent="1">
          <mxGeometry x="123.25" y="300" width="140" height="140" as="geometry" />
        </mxCell>
        <mxCell id="27gqgZurmdsXIgYxWqX_-20" value="SQL Database" style="verticalLabelPosition=bottom;html=1;verticalAlign=top;strokeColor=none;fillColor=#3399FF;shape=mxgraph.azure.sql_database;dashed=1;fontFamily=Helvetica;fontSize=14;fontColor=#004C99" vertex="1" parent="1">
          <mxGeometry x="174.25" y="351" width="37.5" height="50" as="geometry" />
        </mxCell>
        <mxCell id="27gqgZurmdsXIgYxWqX_-21" value="企业微信" style="rounded=1;whiteSpace=wrap;html=1;dashed=1;strokeColor=none;strokeWidth=2;fillColor=#FFFFFF;fontFamily=Helvetica;fontSize=14;fontColor=#FFB366;opacity=75;verticalAlign=top;fontStyle=1" vertex="1" parent="1">
          <mxGeometry x="123" y="470" width="140" height="140" as="geometry" />
        </mxCell>
        <mxCell id="27gqgZurmdsXIgYxWqX_-22" value="SQL Database" style="verticalLabelPosition=bottom;html=1;verticalAlign=top;strokeColor=none;fillColor=#3399FF;shape=mxgraph.azure.sql_database;dashed=1;fontFamily=Helvetica;fontSize=14;fontColor=#004C99" vertex="1" parent="1">
          <mxGeometry x="174" y="521" width="37.5" height="50" as="geometry" />
        </mxCell>
        <mxCell id="27gqgZurmdsXIgYxWqX_-23" value="Storage Servers" style="verticalLabelPosition=bottom;html=1;verticalAlign=top;strokeColor=none;fillColor=#3399FF;shape=mxgraph.azure.server_rack;dashed=1;fontFamily=Helvetica;fontSize=14;fontColor=#004C99" vertex="1" parent="1">
          <mxGeometry x="349.25" y="182" width="50" height="50" as="geometry" />
        </mxCell>
        <mxCell id="27gqgZurmdsXIgYxWqX_-24" value="用户注册中心" style="rounded=1;whiteSpace=wrap;html=1;dashed=1;strokeColor=none;strokeWidth=2;fillColor=#FFFFFF;fontFamily=Helvetica;fontSize=14;fontColor=#FFB366;opacity=75;verticalAlign=top;fontStyle=1" vertex="1" parent="1">
          <mxGeometry x="303.5" y="300" width="140" height="140" as="geometry" />
        </mxCell>
        <mxCell id="27gqgZurmdsXIgYxWqX_-25" value="Storage Servers" style="verticalLabelPosition=bottom;html=1;verticalAlign=top;strokeColor=none;fillColor=#3399FF;shape=mxgraph.azure.server_rack;dashed=1;fontFamily=Helvetica;fontSize=14;fontColor=#004C99" vertex="1" parent="1">
          <mxGeometry x="348.5" y="348" width="50" height="50" as="geometry" />
        </mxCell>
        <mxCell id="27gqgZurmdsXIgYxWqX_-26" value="企业微信服务" style="rounded=1;whiteSpace=wrap;html=1;dashed=1;strokeColor=none;strokeWidth=2;fillColor=#FFFFFF;fontFamily=Helvetica;fontSize=14;fontColor=#FFB366;opacity=75;verticalAlign=top;fontStyle=1" vertex="1" parent="1">
          <mxGeometry x="303.5" y="470" width="140" height="140" as="geometry" />
        </mxCell>
        <mxCell id="27gqgZurmdsXIgYxWqX_-27" value="Storage Servers" style="verticalLabelPosition=bottom;html=1;verticalAlign=top;strokeColor=none;fillColor=#3399FF;shape=mxgraph.azure.server_rack;dashed=1;fontFamily=Helvetica;fontSize=14;fontColor=#004C99" vertex="1" parent="1">
          <mxGeometry x="348.5" y="518" width="50" height="50" as="geometry" />
        </mxCell>
        <mxCell id="27gqgZurmdsXIgYxWqX_-28" value="" style="arrow;html=1;endArrow=block;endFill=1;strokeColor=none;strokeWidth=4;fontFamily=Helvetica;fontSize=36;fontColor=#FFB366;fillColor=#FFB366;" edge="1" parent="1">
          <mxGeometry width="100" height="100" relative="1" as="geometry">
            <mxPoint x="238" y="545.5" as="sourcePoint" />
            <mxPoint x="318" y="545.5" as="targetPoint" />
          </mxGeometry>
        </mxCell>
        <mxCell id="27gqgZurmdsXIgYxWqX_-29" value="" style="arrow;html=1;endArrow=block;endFill=1;strokeColor=none;strokeWidth=4;fontFamily=Helvetica;fontSize=36;fontColor=#FFB366;fillColor=#FFB366;" edge="1" parent="1">
          <mxGeometry width="100" height="100" relative="1" as="geometry">
            <mxPoint x="238" y="372.5" as="sourcePoint" />
            <mxPoint x="318" y="372.5" as="targetPoint" />
          </mxGeometry>
        </mxCell>
        <mxCell id="27gqgZurmdsXIgYxWqX_-30" value="" style="arrow;html=1;endArrow=block;endFill=1;strokeColor=none;strokeWidth=4;fontFamily=Helvetica;fontSize=36;fontColor=#FFB366;fillColor=#FFB366;" edge="1" parent="1">
          <mxGeometry width="100" height="100" relative="1" as="geometry">
            <mxPoint x="238" y="209.5" as="sourcePoint" />
            <mxPoint x="318" y="209.5" as="targetPoint" />
          </mxGeometry>
        </mxCell>
        <mxCell id="27gqgZurmdsXIgYxWqX_-31" value="" style="arrow;html=1;endArrow=block;endFill=1;strokeColor=none;strokeWidth=4;fontFamily=Helvetica;fontSize=36;fontColor=#FFB366;fillColor=#FFB366;" edge="1" parent="1">
          <mxGeometry width="100" height="100" relative="1" as="geometry">
            <mxPoint x="418" y="364" as="sourcePoint" />
            <mxPoint x="498" y="364" as="targetPoint" />
          </mxGeometry>
        </mxCell>
        <mxCell id="27gqgZurmdsXIgYxWqX_-32" value="" style="arrow;html=1;endArrow=block;endFill=1;strokeColor=none;strokeWidth=4;fontFamily=Helvetica;fontSize=36;fontColor=#FFB366;fillColor=#FFB366;" edge="1" parent="1">
          <mxGeometry width="100" height="100" relative="1" as="geometry">
            <mxPoint x="424.5" y="545.5" as="sourcePoint" />
            <mxPoint x="504.5" y="545.5" as="targetPoint" />
          </mxGeometry>
        </mxCell>
        <mxCell id="27gqgZurmdsXIgYxWqX_-33" value="publisher" style="verticalLabelPosition=bottom;html=1;verticalAlign=top;strokeColor=none;fillColor=#3399FF;shape=mxgraph.azure.server_rack;dashed=1;fontFamily=Helvetica;fontSize=14;fontColor=#004C99" vertex="1" parent="1">
          <mxGeometry x="526" y="234" width="50" height="50" as="geometry" />
        </mxCell>
        <mxCell id="27gqgZurmdsXIgYxWqX_-34" value="customer" style="verticalLabelPosition=bottom;html=1;verticalAlign=top;strokeColor=none;fillColor=#3399FF;shape=mxgraph.azure.server_rack;dashed=1;fontFamily=Helvetica;fontSize=14;fontColor=#004C99" vertex="1" parent="1">
          <mxGeometry x="526" y="401" width="50" height="50" as="geometry" />
        </mxCell>
        <mxCell id="27gqgZurmdsXIgYxWqX_-35" value="Cloud" style="verticalLabelPosition=bottom;html=1;verticalAlign=top;strokeColor=none;fillColor=#3399FF;shape=mxgraph.azure.cloud;dashed=1;fontSize=14;fontColor=#004C99" vertex="1" parent="1">
          <mxGeometry x="708.5" y="284" width="50" height="33.5" as="geometry" />
        </mxCell>
        <mxCell id="27gqgZurmdsXIgYxWqX_-36" value="Cloud" style="verticalLabelPosition=bottom;html=1;verticalAlign=top;strokeColor=none;fillColor=#3399FF;shape=mxgraph.azure.cloud;dashed=1;fontSize=14;fontColor=#004C99" vertex="1" parent="1">
          <mxGeometry x="708.5" y="387.5" width="50" height="32.5" as="geometry" />
        </mxCell>
        <mxCell id="27gqgZurmdsXIgYxWqX_-37" value="Cloud" style="verticalLabelPosition=bottom;html=1;verticalAlign=top;strokeColor=none;fillColor=#3399FF;shape=mxgraph.azure.cloud;dashed=1;fontSize=14;fontColor=#004C99" vertex="1" parent="1">
          <mxGeometry x="708.5" y="488.5" width="50" height="32.5" as="geometry" />
        </mxCell>
        <mxCell id="27gqgZurmdsXIgYxWqX_-38" value="" style="shape=doubleArrow;whiteSpace=wrap;html=1;strokeColor=#FFB366;fillColor=#FFB366;" vertex="1" parent="1">
          <mxGeometry x="589" y="239.5" width="100" height="39" as="geometry" />
        </mxCell>
        <mxCell id="27gqgZurmdsXIgYxWqX_-39" value="" style="shape=doubleArrow;whiteSpace=wrap;html=1;strokeColor=#FFB366;fillColor=#FFB366;" vertex="1" parent="1">
          <mxGeometry x="594.5" y="412" width="100" height="39" as="geometry" />
        </mxCell>
        <mxCell id="27gqgZurmdsXIgYxWqX_-40" value="&amp;nbsp;&amp;nbsp;" style="text;html=1;strokeColor=none;fillColor=none;align=center;verticalAlign=middle;whiteSpace=wrap;rounded=0;" vertex="1" parent="1">
          <mxGeometry x="50" y="20" width="850" height="20" as="geometry" />
        </mxCell>
        <mxCell id="27gqgZurmdsXIgYxWqX_-41" value="&amp;nbsp;&amp;nbsp;" style="text;html=1;strokeColor=none;fillColor=none;align=center;verticalAlign=middle;whiteSpace=wrap;rounded=0;" vertex="1" parent="1">
          <mxGeometry x="50" y="750" width="850" height="20" as="geometry" />
        </mxCell>
      </root>
    </mxGraphModel>
  </diagram>
</mxfile>
